<svg width="25" height="25" viewBox="0 0 25 25" fill="none" xmlns="http://www.w3.org/2000/svg">
<path d="M12.6416 2.34372C6.92965 2.26657 2.26657 6.92965 2.34372 12.6416C2.41989 18.1196 6.88034 22.58 12.3584 22.6562C18.0713 22.7343 22.7334 18.0713 22.6552 12.3593C22.58 6.88034 18.1196 2.41989 12.6416 2.34372ZM18.8144 18.3227C18.795 18.3438 18.7711 18.3603 18.7446 18.371C18.7181 18.3818 18.6895 18.3867 18.6609 18.3852C18.6322 18.3837 18.6043 18.3759 18.579 18.3624C18.5538 18.3489 18.5318 18.33 18.5146 18.3071C18.0779 17.7357 17.543 17.2465 16.935 16.8623C15.6919 16.0644 14.1167 15.625 12.5 15.625C10.8833 15.625 9.30807 16.0644 8.06491 16.8623C7.45694 17.2463 6.92208 17.7353 6.48532 18.3066C6.46816 18.3296 6.44616 18.3484 6.42089 18.3619C6.39562 18.3754 6.36769 18.3832 6.33908 18.3847C6.31047 18.3862 6.28188 18.3813 6.25534 18.3706C6.2288 18.3598 6.20496 18.3433 6.18551 18.3222C4.75274 16.7755 3.94113 14.7545 3.90622 12.6465C3.82663 7.89499 7.72555 3.91794 12.479 3.90622C17.2324 3.8945 21.0937 7.75436 21.0937 12.5C21.0954 14.6589 20.2812 16.7386 18.8144 18.3227Z" fill="black"/>
<path d="M12.4999 7.03125C11.537 7.03125 10.6664 7.39209 10.0478 8.04785C9.42914 8.70361 9.12006 9.61035 9.18988 10.5835C9.33148 12.5 10.8163 14.0625 12.4999 14.0625C14.1835 14.0625 15.6655 12.5 15.81 10.584C15.8823 9.62012 15.5756 8.72168 14.9467 8.05371C14.3256 7.39453 13.4565 7.03125 12.4999 7.03125Z" fill="black"/>
</svg>
