<svg width="28" height="28" viewBox="0 0 28 28" fill="none" xmlns="http://www.w3.org/2000/svg">
<g clip-path="url(#clip0_25_32)">
<path d="M20.0184 7.98443C19.5635 7.52933 19.2971 6.91926 19.2725 6.27622C19.248 5.63319 19.4671 5.00459 19.8861 4.51615C19.9207 4.47552 19.9387 4.4233 19.9365 4.36996C19.9343 4.31661 19.912 4.26608 19.874 4.22849L17.4607 1.8124C17.4208 1.77252 17.3667 1.75012 17.3103 1.75012C17.2539 1.75012 17.1998 1.77252 17.1599 1.8124L13.3132 5.65911C13.1712 5.80101 13.0643 5.97402 13.0009 6.16443C12.9377 6.35527 12.8309 6.52878 12.689 6.67117C12.5471 6.81356 12.374 6.92092 12.1833 6.98474C11.9928 7.04823 11.8196 7.15513 11.6775 7.297L1.8124 17.1599C1.77252 17.1998 1.75012 17.2539 1.75012 17.3103C1.75012 17.3667 1.77252 17.4208 1.8124 17.4607L4.22575 19.874C4.26334 19.912 4.31388 19.9343 4.36722 19.9365C4.42057 19.9387 4.47279 19.9207 4.51341 19.8861C5.00175 19.4667 5.63049 19.2472 6.27374 19.2716C6.917 19.296 7.52731 19.5624 7.98249 20.0176C8.43766 20.4728 8.70412 21.0831 8.72851 21.7264C8.75291 22.3696 8.53343 22.9984 8.11404 23.4867C8.07939 23.5273 8.06137 23.5795 8.0636 23.6329C8.06583 23.6862 8.08815 23.7368 8.12607 23.7744L10.5394 26.1877C10.5793 26.2276 10.6334 26.25 10.6898 26.25C10.7462 26.25 10.8003 26.2276 10.8402 26.1877L20.7058 16.3226C20.8477 16.1805 20.9546 16.0073 21.0181 15.8168C21.0813 15.6259 21.1881 15.4524 21.33 15.31C21.4719 15.1676 21.645 15.0603 21.8357 14.9965C22.0261 14.933 22.1991 14.8261 22.341 14.6842L26.1877 10.8375C26.2276 10.7976 26.25 10.7435 26.25 10.6871C26.25 10.6307 26.2276 10.5766 26.1877 10.5367L23.7744 8.12333C23.7368 8.08541 23.6862 8.0631 23.6329 8.06087C23.5795 8.05864 23.5273 8.07665 23.4867 8.1113C22.9989 8.53096 22.3707 8.75103 21.7277 8.7275C21.0847 8.70398 20.4742 8.4386 20.0184 7.98443Z" stroke="black" stroke-width="2" stroke-miterlimit="10"/>
<path d="M13.6993 7.68036L12.7964 6.77747M16.1066 10.0877L15.5045 9.48614M18.514 12.4956L17.9124 11.8935M21.2226 15.2037L20.3197 14.3008" stroke="black" stroke-width="2" stroke-miterlimit="10" stroke-linecap="round"/>
</g>
<defs>
<clipPath id="clip0_25_32">
<rect width="28" height="28" fill="white"/>
</clipPath>
</defs>
</svg>
