<svg width="27" height="27" viewBox="0 0 27 27" fill="none" xmlns="http://www.w3.org/2000/svg">
<path d="M21.5509 15.7429C21.3317 15.7439 21.117 15.6799 20.9342 15.5588C20.7514 15.4378 20.6087 15.2652 20.524 15.0629C20.4394 14.8607 20.4167 14.6378 20.4588 14.4227C20.501 14.2075 20.606 14.0097 20.7607 13.8543C20.9154 13.6989 21.1127 13.5929 21.3276 13.5497C21.5426 13.5066 21.7655 13.5282 21.9682 13.6119C22.1709 13.6955 22.3441 13.8375 22.466 14.0197C22.588 14.2019 22.653 14.4162 22.6531 14.6355C22.6541 14.7808 22.6263 14.9248 22.5714 15.0593C22.5164 15.1938 22.4354 15.316 22.3329 15.419C22.2304 15.522 22.1085 15.6036 21.9743 15.6592C21.8401 15.7148 21.6962 15.7433 21.5509 15.7429ZM16.163 15.7429C15.9438 15.7439 15.7292 15.6799 15.5464 15.5588C15.3635 15.4378 15.2208 15.2652 15.1362 15.0629C15.0515 14.8607 15.0288 14.6378 15.071 14.4227C15.1131 14.2075 15.2182 14.0097 15.3728 13.8543C15.5275 13.6989 15.7248 13.5929 15.9398 13.5497C16.1547 13.5066 16.3777 13.5282 16.5803 13.6119C16.783 13.6955 16.9563 13.8375 17.0782 14.0197C17.2001 14.2019 17.2652 14.4162 17.2652 14.6355C17.2663 14.7808 17.2386 14.9248 17.1837 15.0594C17.1287 15.1939 17.0477 15.3162 16.9452 15.4192C16.8427 15.5222 16.7208 15.6038 16.5865 15.6594C16.4523 15.7149 16.3083 15.7433 16.163 15.7429ZM24.1834 22.0109C25.8978 20.7817 26.9999 18.9386 26.9999 16.8493C26.9999 13.1009 23.3876 10.0281 18.8572 10.0281C14.3268 10.0281 10.714 13.1009 10.714 16.8493C10.714 20.5976 14.3263 23.6699 18.8572 23.6699C19.7753 23.6699 20.694 23.5471 21.4897 23.3008C21.621 23.2554 21.6732 23.2391 21.7344 23.2391C21.8856 23.2427 22.0332 23.2852 22.1631 23.3625L23.9414 24.4072C23.9989 24.4373 24.0608 24.4581 24.1249 24.4689C24.1886 24.4645 24.2485 24.4372 24.2936 24.392C24.3387 24.3468 24.3659 24.2868 24.3701 24.2231C24.366 24.1537 24.3523 24.0852 24.3295 24.0196C24.3079 23.9426 24.0658 23.1758 23.9414 22.687C23.9299 22.6266 23.9241 22.5654 23.924 22.504C23.9247 22.4066 23.949 22.3108 23.995 22.2249C24.0409 22.139 24.107 22.0656 24.1876 22.0109" fill="black"/>
<path d="M12.9795 9.41361C12.6373 9.41361 12.3091 9.27766 12.0671 9.03566C11.8251 8.79366 11.6891 8.46544 11.6891 8.1232C11.6891 7.78096 11.8251 7.45274 12.0671 7.21074C12.3091 6.96875 12.6373 6.83279 12.9795 6.83279C13.6529 6.83279 14.2652 7.44715 14.2652 8.1232C14.3263 8.79926 13.7141 9.41361 12.9795 9.41361ZM6.49002 9.41361C6.23469 9.41455 5.98482 9.33972 5.77204 9.1986C5.55925 9.05747 5.39312 8.85639 5.29466 8.6208C5.1962 8.38522 5.16985 8.12572 5.21893 7.87515C5.26801 7.62458 5.39033 7.39421 5.57039 7.21318C5.75046 7.03216 5.98018 6.90862 6.23049 6.85821C6.48079 6.80779 6.74043 6.83277 6.97653 6.92997C7.21263 7.02717 7.41459 7.19223 7.55685 7.40427C7.69911 7.6163 7.77526 7.86576 7.77568 8.12109C7.77431 8.46209 7.63856 8.78879 7.39788 9.03036C7.15721 9.27192 6.83101 9.40887 6.49002 9.4115M9.73477 2.53125C4.34689 2.53125 0 6.15674 0 10.7051C0 13.163 1.28566 15.3752 3.36709 16.8502C3.55113 16.972 3.58594 17.2441 3.58594 17.3496C3.59035 17.4301 3.57851 17.5106 3.55113 17.5864C3.36709 18.2007 3.13242 19.1953 3.1224 19.248C3.11238 19.3008 3.06123 19.4326 3.06123 19.4938C3.05862 19.5347 3.06473 19.5757 3.07916 19.6141C3.09358 19.6525 3.116 19.6873 3.14491 19.7164C3.17383 19.7455 3.20859 19.7681 3.24689 19.7827C3.28519 19.7973 3.32616 19.8036 3.36709 19.8012C3.43277 19.7971 3.49622 19.7758 3.55113 19.7395L5.69531 18.5098C5.87936 18.3869 6.0017 18.3869 6.18521 18.3869C6.29022 18.3884 6.39406 18.4092 6.4916 18.4481C7.47088 18.7555 8.57303 18.8784 9.67518 18.8784H10.2262C10.0255 18.2211 9.92228 17.538 9.91986 16.8507C9.91986 12.7332 13.8997 9.41519 18.7977 9.41519H19.3488C18.6732 5.54238 14.6327 2.53125 9.73477 2.53125Z" fill="black"/>
</svg>
