<svg width="17" height="17" viewBox="0 0 17 17" fill="none" xmlns="http://www.w3.org/2000/svg">
<path d="M14.6538 1.73077H2.34615C1.32655 1.73077 0.5 2.55733 0.5 3.57693V14.6539C0.5 15.6735 1.32655 16.5 2.34615 16.5H14.6538C15.6734 16.5 16.5 15.6735 16.5 14.6539V3.57693C16.5 2.55733 15.6734 1.73077 14.6538 1.73077Z" stroke="black" stroke-linejoin="round"/>
<path d="M10.0385 8.49996C10.5483 8.49996 10.9616 8.08669 10.9616 7.57689C10.9616 7.06708 10.5483 6.65381 10.0385 6.65381C9.52869 6.65381 9.11542 7.06708 9.11542 7.57689C9.11542 8.08669 9.52869 8.49996 10.0385 8.49996Z" fill="black"/>
<path d="M13.1154 8.49996C13.6252 8.49996 14.0385 8.08669 14.0385 7.57689C14.0385 7.06708 13.6252 6.65381 13.1154 6.65381C12.6056 6.65381 12.1923 7.06708 12.1923 7.57689C12.1923 8.08669 12.6056 8.49996 13.1154 8.49996Z" fill="black"/>
<path d="M10.0385 11.5769C10.5483 11.5769 10.9616 11.1637 10.9616 10.6539C10.9616 10.144 10.5483 9.73077 10.0385 9.73077C9.52869 9.73077 9.11542 10.144 9.11542 10.6539C9.11542 11.1637 9.52869 11.5769 10.0385 11.5769Z" fill="black"/>
<path d="M13.1154 11.5769C13.6252 11.5769 14.0385 11.1637 14.0385 10.6539C14.0385 10.144 13.6252 9.73077 13.1154 9.73077C12.6056 9.73077 12.1923 10.144 12.1923 10.6539C12.1923 11.1637 12.6056 11.5769 13.1154 11.5769Z" fill="black"/>
<path d="M3.88456 11.5769C4.39437 11.5769 4.80764 11.1637 4.80764 10.6539C4.80764 10.144 4.39437 9.73077 3.88456 9.73077C3.37476 9.73077 2.96149 10.144 2.96149 10.6539C2.96149 11.1637 3.37476 11.5769 3.88456 11.5769Z" fill="black"/>
<path d="M6.96159 11.5769C7.47139 11.5769 7.88467 11.1637 7.88467 10.6539C7.88467 10.144 7.47139 9.73077 6.96159 9.73077C6.45179 9.73077 6.03851 10.144 6.03851 10.6539C6.03851 11.1637 6.45179 11.5769 6.96159 11.5769Z" fill="black"/>
<path d="M3.88456 14.6539C4.39437 14.6539 4.80764 14.2406 4.80764 13.7308C4.80764 13.221 4.39437 12.8077 3.88456 12.8077C3.37476 12.8077 2.96149 13.221 2.96149 13.7308C2.96149 14.2406 3.37476 14.6539 3.88456 14.6539Z" fill="black"/>
<path d="M6.96159 14.6539C7.47139 14.6539 7.88467 14.2406 7.88467 13.7308C7.88467 13.221 7.47139 12.8077 6.96159 12.8077C6.45179 12.8077 6.03851 13.221 6.03851 13.7308C6.03851 14.2406 6.45179 14.6539 6.96159 14.6539Z" fill="black"/>
<path d="M10.0385 14.6539C10.5483 14.6539 10.9616 14.2406 10.9616 13.7308C10.9616 13.221 10.5483 12.8077 10.0385 12.8077C9.52869 12.8077 9.11542 13.221 9.11542 13.7308C9.11542 14.2406 9.52869 14.6539 10.0385 14.6539Z" fill="black"/>
<path d="M3.5769 0.5V1.73077M13.4231 0.5V1.73077" stroke="black" stroke-linecap="round" stroke-linejoin="round"/>
<path d="M16.5 4.80768H0.5" stroke="black" stroke-linejoin="round"/>
</svg>
