<svg width="25" height="27" viewBox="0 0 25 27" fill="none" xmlns="http://www.w3.org/2000/svg">
<path d="M16.4971 20.8846V21.8077C16.4971 22.787 16.076 23.7261 15.3265 24.4185C14.577 25.111 13.5605 25.5 12.5005 25.5C11.4405 25.5 10.424 25.111 9.67447 24.4185C8.92496 23.7261 8.50389 22.787 8.50389 21.8077V20.8846M23.2214 19.0056C21.6178 17.1923 20.4856 16.2692 20.4856 11.2702C20.4856 6.69231 17.9553 5.06135 15.8726 4.26923C15.596 4.16423 15.3356 3.92308 15.2513 3.66058C14.886 2.51192 13.8618 1.5 12.5005 1.5C11.1392 1.5 10.1144 2.5125 9.75283 3.66173C9.66853 3.92712 9.40812 4.16423 9.13148 4.26923C7.04638 5.0625 4.51852 6.68769 4.51852 11.2702C4.5154 16.2692 3.38323 17.1923 1.77959 19.0056C1.11516 19.7567 1.69716 20.8846 2.8593 20.8846H22.1479C23.3038 20.8846 23.8821 19.7533 23.2214 19.0056Z" stroke="black" stroke-width="3" stroke-linecap="round" stroke-linejoin="round"/>
</svg>
